<svg viewBox="0 0 1189 1001" xmlns="http://www.w3.org/2000/svg" xml:space="preserve" fill-rule="evenodd" clip-rule="evenodd" stroke-miterlimit="10">
  <g transform="scale(2.94383)">
    <path d="M0 0h403.7v340H0z" fill="none"/>
    <clipPath id="a">
      <path d="M0 0h403.7v340H0z"/>
    </clipPath>
    <g clip-path="url(#a)">
      <path d="M37.9 27.3h62.7v16.5H56v17.6h39.3v16.4H56v32H37.9V27.2Zm0 117.5h18v65.9h41.2V227H37.9v-82.3Zm338.7 82.3h-59.2v-16.4h41v-66h18.2v82.4Zm0-117.4h-18.2V43.8h-41V27.4h59.2v82.3Zm-214.8 22.6-11-26.7-10.9 26.7h22Zm-19-48.4h16.7l35.3 83h-19l-7.5-18.6h-34.8l-7.6 18.5h-18.5l35.3-83ZM269 132.8h-21V151h21.5c8 0 12.9-2.8 12.9-9v-.1c0-5.6-4.2-9-13.5-9m8.9-24c0-5.4-4.3-8.5-12-8.5H248v17.4h16.7c8 0 13-2.5 13-8.7v-.2Zm-47.5-24.3h38.3c9.4 0 16.8 2.5 21.5 7.2a19 19 0 0 1 5.7 14v.3a19 19 0 0 1-10.9 17.7c9.6 3.7 15.5 9.2 15.5 20.3v.2c0 15-12.3 22.6-30.9 22.6h-39.2V84.5Z" fill="#ed193a" fill-rule="nonzero"/>
      <path d="M103.4 270.4h9v42.2h-9zm28 20.1c3-1.7 5.6-4.3 5.6-9v-.2c0-2.9-1-5.3-3-7.2-2.3-2.4-6.1-3.7-11-3.7h-7.4v8.1h6c4 0 6.1 1.6 6.1 4.4 0 3.2-2.6 4.5-6.7 4.5h-5.4v7.8h7.6c4.8 0 6.9 1.7 6.9 4.5v.2c0 3.1-2.5 4.6-6.6 4.6h-8v8h8c9.5 0 15.8-3.8 15.8-11.5v-.1c0-5.7-3-8.5-7.9-10.4m26.3-20.1h9.3v42.2h-9.3zm26.3 27.1c5.3-2 9-6.3 9-13v-.2c0-4-1.3-7.3-3.7-9.6-2.7-2.8-6.9-4.3-12.3-4.3h-6.9v8.4h6.2c4.5 0 7.3 2 7.3 6v.1c0 3.6-2.6 6-7.2 6h-6.3v8.2h4.2l9 13.5h11l-10.4-15Zm65.4 5.8v-33h-9.2v21l9.2 12Zm-37.5-24.5v33.8h9.1v-21.7l-9.1-12Zm28.3 17.5-19.7-25.9h-8.6v3.3l14 18.5 15.6 20.4h7.9v-4.2l-9.2-12Zm48.7 8.3a12.9 12.9 0 0 1-11.2-13.1v-.1c0-6.8 4.5-12.4 11.2-13.1v-8.6a21.7 21.7 0 0 0-21 21.8v.1c0 11.5 8.7 21 21 21.6v-8.6Zm3.1-34.9v8.6c6.6.8 11.1 6.5 11.1 13.2v.1c0 6.8-4.5 12.3-11.1 13v8.6a21.7 21.7 0 0 0 20.9-21.7v-.1c0-11.6-8.7-21-21-21.7" fill="#231f20" fill-rule="nonzero"/>
      <path d="M-91.9-70.6H-130m625.6 0h38.2M-91.9 410.6H-130m625.6 0h38.2M-83.8-78.6V-117m0 535.6v38.2M487.5-78.6V-117m0 535.6v38.2" fill="none" stroke="#fff" stroke-width="1.8"/>
      <path d="M-91.9-70.6H-130m625.6 0h38.2M-91.9 410.6H-130m625.6 0h38.2M-83.8-78.6V-117m0 535.6v38.2M487.5-78.6V-117m0 535.6v38.2" fill="none" stroke="#000" stroke-width=".4"/>
    </g>
  </g>
</svg>
